<svg width="345.6875px" height="128px" xmlns="http://www.w3.org/2000/svg" viewBox="77.15625 11 345.6875 128" style="background: rgba(0, 0, 0, 0);" preserveAspectRatio="xMidYMid"><defs><linearGradient id="editing-gradient-gradient" x1="0" x2="1" y1="0.5" y2="0.5" gradientUnits="objectBoundingBox"><stop offset="0" stop-color="#f0f"></stop><stop offset="1" stop-color="#0ff"></stop></linearGradient></defs><g><g transform="translate(131.15498107671738, 104.95499992370605)"><path d="M13.88-27.25L13.88-2.81L13.88-2.81Q13.88-2.41 13.73-1.83L13.73-1.83L13.73-1.83Q13.59-1.25 13.08-0.73L13.08-0.73L13.08-0.73Q12.56-0.22 11.59 0.14L11.59 0.14L11.59 0.14Q10.63 0.50 8.97 0.50L8.97 0.50L8.97 0.50Q7.31 0.50 6.38 0.11L6.38 0.11L6.38 0.11Q5.44-0.28 4.97-0.81L4.97-0.81L4.97-0.81Q4.50-1.34 4.39-1.91L4.39-1.91L4.39-1.91Q4.28-2.47 4.28-2.81L4.28-2.81L4.28-26.94L4.28-26.94Q4.28-27.84 3.86-28.52L3.86-28.52L3.86-28.52Q3.44-29.19 2.44-29.19L2.44-29.19L2.44-29.19Q1.91-29.19 1.53-29L1.53-29L1.53-29Q1.16-28.81 0.72-28.47L0.72-28.47L0.06-29.25L0.06-29.25Q0.78-29.84 1.67-30.42L1.67-30.42L1.67-30.42Q2.56-31 3.59-31.44L3.59-31.44L3.59-31.44Q4.63-31.88 5.81-32.16L5.81-32.16L5.81-32.16Q7-32.44 8.31-32.44L8.31-32.44L8.31-32.44Q10.34-32.44 11.47-31.89L11.47-31.89L11.47-31.89Q12.59-31.34 13.13-30.55L13.13-30.55L13.13-30.55Q13.66-29.75 13.77-28.84L13.77-28.84L13.77-28.84Q13.88-27.94 13.88-27.25L13.88-27.25ZM3.31-39.56L3.31-39.56L3.31-39.56Q3.31-40.44 3.70-41.23L3.70-41.23L3.70-41.23Q4.09-42.03 4.80-42.63L4.80-42.63L4.80-42.63Q5.50-43.22 6.42-43.56L6.42-43.56L6.42-43.56Q7.34-43.91 8.44-43.91L8.44-43.91L8.44-43.91Q9.50-43.91 10.42-43.56L10.42-43.56L10.42-43.56Q11.34-43.22 12.03-42.63L12.03-42.63L12.03-42.63Q12.72-42.03 13.11-41.23L13.11-41.23L13.11-41.23Q13.50-40.44 13.50-39.56L13.50-39.56L13.50-39.56Q13.50-38.66 13.11-37.88L13.11-37.88L13.11-37.88Q12.72-37.09 12.03-36.52L12.03-36.52L12.03-36.52Q11.34-35.94 10.42-35.59L10.42-35.59L10.42-35.59Q9.50-35.25 8.44-35.25L8.44-35.25L8.44-35.25Q7.34-35.25 6.42-35.59L6.42-35.59L6.42-35.59Q5.50-35.94 4.80-36.52L4.80-36.52L4.80-36.52Q4.09-37.09 3.70-37.88L3.70-37.88L3.70-37.88Q3.31-38.66 3.31-39.56ZM40.13-15.56L40.13-15.56L40.13-15.56Q40.13-19.50 39.77-21.86L39.77-21.86L39.77-21.86Q39.41-24.22 38.81-25.45L38.81-25.45L38.81-25.45Q38.22-26.69 37.50-27.08L37.50-27.08L37.50-27.08Q36.78-27.47 36.03-27.47L36.03-27.47L36.03-27.47Q35.13-27.47 34.42-26.98L34.42-26.98L34.42-26.98Q33.72-26.50 33.20-25.88L33.20-25.88L33.20-25.88Q32.69-25.25 32.33-24.63L32.33-24.63L32.33-24.63Q31.97-24 31.72-23.69L31.72-23.69L31.72-2.81L31.72-2.81Q31.72-2.41 31.59-1.83L31.59-1.83L31.59-1.83Q31.47-1.25 30.98-0.73L30.98-0.73L30.98-0.73Q30.50-0.22 29.55 0.14L29.55 0.14L29.55 0.14Q28.59 0.50 26.94 0.50L26.94 0.50L26.94 0.50Q25.28 0.50 24.33 0.11L24.33 0.11L24.33 0.11Q23.38-0.28 22.88-0.81L22.88-0.81L22.88-0.81Q22.38-1.34 22.25-1.91L22.25-1.91L22.25-1.91Q22.13-2.47 22.13-2.81L22.13-2.81L22.13-26.94L22.13-26.94Q22.13-27.84 21.70-28.52L21.70-28.52L21.70-28.52Q21.28-29.19 20.28-29.19L20.28-29.19L20.28-29.19Q19.75-29.19 19.38-29L19.38-29L19.38-29Q19-28.81 18.56-28.47L18.56-28.47L17.91-29.25L17.91-29.25Q18.63-29.84 19.52-30.42L19.52-30.42L19.52-30.42Q20.41-31 21.44-31.44L21.44-31.44L21.44-31.44Q22.47-31.88 23.66-32.16L23.66-32.16L23.66-32.16Q24.84-32.44 26.16-32.44L26.16-32.44L26.16-32.44Q28.19-32.44 29.31-31.77L29.31-31.77L29.31-31.77Q30.44-31.09 30.97-30.16L30.97-30.16L30.97-30.16Q31.50-29.22 31.61-28.20L31.61-28.20L31.61-28.20Q31.72-27.19 31.72-26.50L31.72-26.50L31.72-26.50Q32.88-28.16 34.34-29.47L34.34-29.47L34.34-29.47Q34.94-30.03 35.67-30.56L35.67-30.56L35.67-30.56Q36.41-31.09 37.23-31.52L37.23-31.52L37.23-31.52Q38.06-31.94 38.98-32.19L38.98-32.19L38.98-32.19Q39.91-32.44 40.88-32.44L40.88-32.44L40.88-32.44Q43-32.44 44.64-31.63L44.64-31.63L44.64-31.63Q46.28-30.81 47.41-28.91L47.41-28.91L47.41-28.91Q48.53-27 49.13-23.86L49.13-23.86L49.13-23.86Q49.72-20.72 49.72-16.06L49.72-16.06L49.72-16.06Q49.72-11.53 48.91-8.19L48.91-8.19L48.91-8.19Q48.09-4.84 46.78-2.50L46.78-2.50L46.78-2.50Q45.47-0.16 43.81 1.33L43.81 1.33L43.81 1.33Q42.16 2.81 40.47 3.66L40.47 3.66L40.47 3.66Q38.78 4.50 37.23 4.83L37.23 4.83L37.23 4.83Q35.69 5.16 34.56 5.19L34.56 5.19L34.22 3.91L34.22 3.91Q35.16 3.69 35.95 3.22L35.95 3.22L35.95 3.22Q36.75 2.75 37.41 1.84L37.41 1.84L37.41 1.84Q38.06 0.94 38.56-0.45L38.56-0.45L38.56-0.45Q39.06-1.84 39.42-3.94L39.42-3.94L39.42-3.94Q39.78-6.03 39.95-8.89L39.95-8.89L39.95-8.89Q40.13-11.75 40.13-15.56ZM66.22-29.94L66.22-29.94L66.22-29.94Q65.50-29.94 64.86-29.75L64.86-29.75L64.86-29.75Q64.22-29.56 63.72-29.14L63.72-29.14L63.72-29.14Q63.22-28.72 62.94-28.08L62.94-28.08L62.94-28.08Q62.66-27.44 62.66-26.56L62.66-26.56L62.66-26.56Q62.66-25.34 63.55-24.14L63.55-24.14L63.55-24.14Q64.44-22.94 65.77-21.64L65.77-21.64L65.77-21.64Q67.09-20.34 68.64-18.95L68.64-18.95L68.64-18.95Q70.19-17.56 71.52-16.02L71.52-16.02L71.52-16.02Q72.84-14.47 73.73-12.72L73.73-12.72L73.73-12.72Q74.63-10.97 74.63-8.97L74.63-8.97L74.63-8.97Q74.63-6.72 73.86-4.97L73.86-4.97L73.86-4.97Q73.09-3.22 71.67-2L71.67-2L71.67-2Q70.25-0.78 68.23-0.14L68.23-0.14L68.23-0.14Q66.22 0.50 63.75 0.50L63.75 0.50L63.75 0.50Q61.59 0.50 59.84-0.11L59.84-0.11L59.84-0.11Q58.09-0.72 56.73-1.61L56.73-1.61L56.73-1.61Q55.38-2.50 54.41-3.50L54.41-3.50L54.41-3.50Q53.44-4.50 52.91-5.31L52.91-5.31L54-6.09L54-6.09Q54.41-5.63 55.03-5.08L55.03-5.08L55.03-5.08Q55.66-4.53 56.42-4.06L56.42-4.06L56.42-4.06Q57.19-3.59 58.06-3.30L58.06-3.30L58.06-3.30Q58.94-3 59.84-3L59.84-3L59.84-3Q62.09-3 63.53-4.08L63.53-4.08L63.53-4.08Q64.97-5.16 64.97-7.28L64.97-7.28L64.97-7.28Q64.97-8.47 64.19-9.73L64.19-9.73L64.19-9.73Q63.41-11 62.22-12.34L62.22-12.34L62.22-12.34Q61.03-13.69 59.66-15.13L59.66-15.13L59.66-15.13Q58.28-16.56 57.09-18.09L57.09-18.09L57.09-18.09Q55.91-19.63 55.13-21.25L55.13-21.25L55.13-21.25Q54.34-22.88 54.34-24.63L54.34-24.63L54.34-24.63Q54.34-26.59 55.14-28.06L55.14-28.06L55.14-28.06Q55.94-29.53 57.27-30.50L57.27-30.50L57.27-30.50Q58.59-31.47 60.30-31.95L60.30-31.95L60.30-31.95Q62-32.44 63.81-32.44L63.81-32.44L63.81-32.44Q65.91-32.44 67.63-32.06L67.63-32.06L67.63-32.06Q69.34-31.69 70.58-30.92L70.58-30.92L70.58-30.92Q71.81-30.16 72.48-29L72.48-29L72.48-29Q73.16-27.84 73.16-26.31L73.16-26.31L73.16-26.31Q73.16-25.13 72.38-24.25L72.38-24.25L72.38-24.25Q71.59-23.38 70.19-23.38L70.19-23.38L70.19-23.38Q68.84-23.38 68.14-23.95L68.14-23.95L68.14-23.95Q67.44-24.53 67.44-25.53L67.44-25.53L67.44-25.53Q67.44-26.19 67.77-26.56L67.77-26.56L67.77-26.56Q68.09-26.94 68.50-27.17L68.50-27.17L68.50-27.17Q68.91-27.41 69.23-27.58L69.23-27.58L69.23-27.58Q69.56-27.75 69.56-28.03L69.56-28.03L69.56-28.03Q69.56-28.91 68.63-29.42L68.63-29.42L68.63-29.42Q67.69-29.94 66.22-29.94ZM94.78-29.75L89.94-29.75L89.94-6.66L89.94-6.66Q89.94-5 90.56-4.36L90.56-4.36L90.56-4.36Q91.19-3.72 92.28-3.72L92.28-3.72L92.28-3.72Q93.13-3.72 93.78-4.19L93.78-4.19L93.78-4.19Q94.44-4.66 94.91-5.25L94.91-5.25L94.91-5.25Q95.47-5.91 95.88-6.78L95.88-6.78L96.84-6.34L96.84-6.34Q96.38-5.34 95.73-4.16L95.73-4.16L95.73-4.16Q95.09-2.97 94.03-1.95L94.03-1.95L94.03-1.95Q92.97-0.94 91.36-0.25L91.36-0.25L91.36-0.25Q89.75 0.44 87.31 0.44L87.31 0.44L87.31 0.44Q85.94 0.44 84.67 0.03L84.67 0.03L84.67 0.03Q83.41-0.38 82.42-1.25L82.42-1.25L82.42-1.25Q81.44-2.13 80.84-3.44L80.84-3.44L80.84-3.44Q80.25-4.75 80.25-6.59L80.25-6.59L80.25-29.75L76.75-29.75L76.75-32L76.75-32Q77.63-32 79.19-32.45L79.19-32.45L79.19-32.45Q80.75-32.91 82.39-33.97L82.39-33.97L82.39-33.97Q84.03-35.03 85.44-36.81L85.44-36.81L85.44-36.81Q86.84-38.59 87.44-41.22L87.44-41.22L89.94-41.22L89.94-32L95.03-32L95.03-32Q97.53-32 97.53-32.84L97.53-32.84L97.53-32.84Q97.53-33.16 97.22-33.27L97.22-33.27L97.22-33.27Q96.91-33.38 96.52-33.55L96.52-33.55L96.52-33.55Q96.13-33.72 95.81-34.03L95.81-34.03L95.81-34.03Q95.50-34.34 95.50-35.06L95.50-35.06L95.50-35.06Q95.50-35.94 96.05-36.44L96.05-36.44L96.05-36.44Q96.59-36.94 97.47-36.94L97.47-36.94L97.47-36.94Q98.03-36.94 98.45-36.70L98.45-36.70L98.45-36.70Q98.88-36.47 99.16-36.08L99.16-36.08L99.16-36.08Q99.44-35.69 99.58-35.19L99.58-35.19L99.58-35.19Q99.72-34.69 99.72-34.19L99.72-34.19L99.72-34.19Q99.72-32.16 98.55-30.95L98.55-30.95L98.55-30.95Q97.38-29.75 94.78-29.75L94.78-29.75ZM115.44-8.56L115.44-16.19L115.44-16.19Q115.44-16.97 114.94-17.38L114.94-17.38L114.94-17.38Q114.44-17.78 113.66-17.78L113.66-17.78L113.66-17.78Q112.56-17.78 111.58-17.28L111.58-17.28L111.58-17.28Q110.59-16.78 109.84-15.81L109.84-15.81L109.84-15.81Q109.09-14.84 108.66-13.42L108.66-13.42L108.66-13.42Q108.22-12 108.22-10.13L108.22-10.13L108.22-10.13Q108.22-8.31 108.48-7.13L108.48-7.13L108.48-7.13Q108.75-5.94 109.20-5.23L109.20-5.23L109.20-5.23Q109.66-4.53 110.25-4.25L110.25-4.25L110.25-4.25Q110.84-3.97 111.50-3.97L111.50-3.97L111.50-3.97Q112.31-3.97 113.03-4.39L113.03-4.39L113.03-4.39Q113.75-4.81 114.28-5.47L114.28-5.47L114.28-5.47Q114.81-6.13 115.13-6.94L115.13-6.94L115.13-6.94Q115.44-7.75 115.44-8.56L115.44-8.56ZM110.47-29.88L110.47-29.88L110.47-29.88Q109.41-29.88 108.50-29.63L108.50-29.63L108.50-29.63Q107.59-29.38 106.94-29L106.94-29L106.94-29Q106.28-28.63 105.91-28.17L105.91-28.17L105.91-28.17Q105.53-27.72 105.53-27.31L105.53-27.31L105.53-27.31Q105.53-26.84 106.02-26.64L106.02-26.64L106.02-26.64Q106.50-26.44 107.09-26.17L107.09-26.17L107.09-26.17Q107.69-25.91 108.17-25.42L108.17-25.42L108.17-25.42Q108.66-24.94 108.66-23.94L108.66-23.94L108.66-23.94Q108.66-23.28 108.39-22.73L108.39-22.73L108.39-22.73Q108.13-22.19 107.67-21.77L107.67-21.77L107.67-21.77Q107.22-21.34 106.61-21.11L106.61-21.11L106.61-21.11Q106-20.88 105.34-20.88L105.34-20.88L105.34-20.88Q103.59-20.88 102.52-22.06L102.52-22.06L102.52-22.06Q101.44-23.25 101.44-25.22L101.44-25.22L101.44-25.22Q101.44-27.13 102.44-28.48L102.44-28.48L102.44-28.48Q103.44-29.84 105.05-30.72L105.05-30.72L105.05-30.72Q106.66-31.59 108.69-32.02L108.69-32.02L108.69-32.02Q110.72-32.44 112.75-32.44L112.75-32.44L112.75-32.44Q115.19-32.44 117.41-31.91L117.41-31.91L117.41-31.91Q119.63-31.38 121.33-30.22L121.33-30.22L121.33-30.22Q123.03-29.06 124.05-27.28L124.05-27.28L124.05-27.28Q125.06-25.50 125.06-22.97L125.06-22.97L125.06-5.31L125.06-5.31Q125.06-5.03 125.09-4.69L125.09-4.69L125.09-4.69Q125.13-4.34 125.25-4.06L125.25-4.06L125.25-4.06Q125.38-3.78 125.63-3.59L125.63-3.59L125.63-3.59Q125.88-3.41 126.34-3.41L126.34-3.41L126.34-3.41Q126.91-3.41 127.39-3.83L127.39-3.83L127.39-3.83Q127.88-4.25 128.25-4.69L128.25-4.69L129.03-4.03L129.03-4.03Q128.56-3.38 127.91-2.59L127.91-2.59L127.91-2.59Q127.25-1.81 126.31-1.13L126.31-1.13L126.31-1.13Q125.38-0.44 124.13 0.03L124.13 0.03L124.13 0.03Q122.88 0.50 121.28 0.50L121.28 0.50L121.28 0.50Q119.31 0.50 117.78-0.67L117.78-0.67L117.78-0.67Q116.25-1.84 115.78-4.28L115.78-4.28L115.78-4.28Q114.78-2.94 113.70-2.03L113.70-2.03L113.70-2.03Q112.63-1.13 111.50-0.56L111.50-0.56L111.50-0.56Q110.38 0 109.23 0.25L109.23 0.25L109.23 0.25Q108.09 0.50 106.94 0.50L106.94 0.50L106.94 0.50Q105.44 0.50 104.03 0.03L104.03 0.03L104.03 0.03Q102.63-0.44 101.52-1.45L101.52-1.45L101.52-1.45Q100.41-2.47 99.73-4.09L99.73-4.09L99.73-4.09Q99.06-5.72 99.06-8.06L99.06-8.06L99.06-8.06Q99.06-10.91 100.19-12.72L100.19-12.72L100.19-12.72Q101.31-14.53 103.14-15.77L103.14-15.77L103.14-15.77Q104.97-17 107.30-17.88L107.30-17.88L107.30-17.88Q109.63-18.75 112.06-19.72L112.06-19.72L112.06-19.72Q113.88-20.44 114.70-21.86L114.70-21.86L114.70-21.86Q115.53-23.28 115.53-24.78L115.53-24.78L115.53-24.78Q115.53-27.09 114.17-28.48L114.17-28.48L114.17-28.48Q112.81-29.88 110.47-29.88ZM133.63 12.69L133.63-26.94L133.63-26.94Q133.63-27.84 133.20-28.52L133.20-28.52L133.20-28.52Q132.78-29.19 131.78-29.19L131.78-29.19L131.78-29.19Q131.25-29.19 130.88-29L130.88-29L130.88-29Q130.50-28.81 130.06-28.47L130.06-28.47L129.41-29.25L129.41-29.25Q130.13-29.84 131.02-30.42L131.02-30.42L131.02-30.42Q131.91-31 132.94-31.44L132.94-31.44L132.94-31.44Q133.97-31.88 135.16-32.16L135.16-32.16L135.16-32.16Q136.34-32.44 137.66-32.44L137.66-32.44L137.66-32.44Q139.06-32.44 140.06-32L140.06-32L140.06-32Q141.06-31.56 141.73-30.95L141.73-30.95L141.73-30.95Q142.41-30.34 142.75-29.67L142.75-29.67L142.75-29.67Q143.09-29 143.16-28.53L143.16-28.53L143.16-28.53Q143.78-29.41 144.64-30.13L144.64-30.13L144.64-30.13Q145.50-30.84 146.52-31.36L146.52-31.36L146.52-31.36Q147.53-31.88 148.67-32.16L148.67-32.16L148.67-32.16Q149.81-32.44 151.03-32.44L151.03-32.44L151.03-32.44Q153.53-32.44 155.56-31.41L155.56-31.41L155.56-31.41Q157.59-30.38 159.05-28.34L159.05-28.34L159.05-28.34Q160.50-26.31 161.28-23.31L161.28-23.31L161.28-23.31Q162.06-20.31 162.06-16.38L162.06-16.38L162.06-16.38Q162.06-11.81 161.11-8.61L161.11-8.61L161.11-8.61Q160.16-5.41 158.61-3.38L158.61-3.38L158.61-3.38Q157.06-1.34 155.08-0.42L155.08-0.42L155.08-0.42Q153.09 0.50 151.03 0.50L151.03 0.50L151.03 0.50Q149.31 0.50 148.02 0.16L148.02 0.16L148.02 0.16Q146.72-0.19 145.78-0.69L145.78-0.69L145.78-0.69Q144.84-1.19 144.22-1.70L144.22-1.70L144.22-1.70Q143.59-2.22 143.22-2.56L143.22-2.56L143.22 12.69L143.22 12.69Q143.22 13.09 143.09 13.66L143.09 13.66L143.09 13.66Q142.97 14.22 142.48 14.73L142.48 14.73L142.48 14.73Q142 15.25 141.05 15.63L141.05 15.63L141.05 15.63Q140.09 16 138.44 16L138.44 16L138.44 16Q136.78 16 135.83 15.61L135.83 15.61L135.83 15.61Q134.88 15.22 134.38 14.67L134.38 14.67L134.38 14.67Q133.88 14.13 133.75 13.58L133.75 13.58L133.75 13.58Q133.63 13.03 133.63 12.69L133.63 12.69ZM143.22-24.44L143.22-7.03L143.22-7.03Q143.22-6.78 143.44-6.16L143.44-6.16L143.44-6.16Q143.66-5.53 144.13-4.88L144.13-4.88L144.13-4.88Q144.59-4.22 145.33-3.70L145.33-3.70L145.33-3.70Q146.06-3.19 147.13-3.19L147.13-3.19L147.13-3.19Q148.50-3.19 149.47-4.23L149.47-4.23L149.47-4.23Q150.44-5.28 151.06-7.08L151.06-7.08L151.06-7.08Q151.69-8.88 151.97-11.27L151.97-11.27L151.97-11.27Q152.25-13.66 152.25-16.38L152.25-16.38L152.25-16.38Q152.25-19.72 151.89-22.03L151.89-22.03L151.89-22.03Q151.53-24.34 150.84-25.77L150.84-25.77L150.84-25.77Q150.16-27.19 149.20-27.83L149.20-27.83L149.20-27.83Q148.25-28.47 147.06-28.47L147.06-28.47L147.06-28.47Q146.38-28.47 145.69-28.08L145.69-28.08L145.69-28.08Q145-27.69 144.45-27.11L144.45-27.11L144.45-27.11Q143.91-26.53 143.56-25.81L143.56-25.81L143.56-25.81Q143.22-25.09 143.22-24.44L143.22-24.44ZM188.41-21.63L176.06-14.34L176.06-14.34Q176.06-13.34 176.36-12.17L176.36-12.17L176.36-12.17Q176.66-11 177.22-9.81L177.22-9.81L177.22-9.81Q177.78-8.63 178.61-7.55L178.61-7.55L178.61-7.55Q179.44-6.47 180.52-5.63L180.52-5.63L180.52-5.63Q181.59-4.78 182.91-4.28L182.91-4.28L182.91-4.28Q184.22-3.78 185.78-3.78L185.78-3.78L185.78-3.78Q186.88-3.78 187.81-4.03L187.81-4.03L187.81-4.03Q188.75-4.28 189.56-4.72L189.56-4.72L189.56-4.72Q190.38-5.16 191.13-5.73L191.13-5.73L191.13-5.73Q191.88-6.31 192.63-6.97L192.63-6.97L193.41-6.22L193.41-6.22Q192.69-5.25 191.56-4.09L191.56-4.09L191.56-4.09Q190.44-2.94 188.84-1.92L188.84-1.92L188.84-1.92Q187.25-0.91 185.13-0.23L185.13-0.23L185.13-0.23Q183 0.44 180.28 0.44L180.28 0.44L180.28 0.44Q177.56 0.44 174.98-0.55L174.98-0.55L174.98-0.55Q172.41-1.53 170.41-3.50L170.41-3.50L170.41-3.50Q168.41-5.47 167.20-8.41L167.20-8.41L167.20-8.41Q166-11.34 166-15.28L166-15.28L166-15.28Q166-18.13 166.72-20.50L166.72-20.50L166.72-20.50Q167.44-22.88 168.67-24.78L168.67-24.78L168.67-24.78Q169.91-26.69 171.55-28.13L171.55-28.13L171.55-28.13Q173.19-29.56 175-30.52L175-30.52L175-30.52Q176.81-31.47 178.70-31.95L178.70-31.95L178.70-31.95Q180.59-32.44 182.34-32.44L182.34-32.44L182.34-32.44Q184.66-32.44 186.38-31.94L186.38-31.94L186.38-31.94Q188.09-31.44 189.23-30.59L189.23-30.59L189.23-30.59Q190.38-29.75 190.94-28.64L190.94-28.64L190.94-28.64Q191.50-27.53 191.50-26.31L191.50-26.31L191.50-26.31Q191.50-24.84 190.66-23.67L190.66-23.67L190.66-23.67Q189.81-22.50 188.41-21.63L188.41-21.63ZM175.75-16.91L182.34-20.69L182.34-20.69Q182.75-20.94 183.02-21.17L183.02-21.17L183.02-21.17Q183.28-21.41 183.44-21.73L183.44-21.73L183.44-21.73Q183.59-22.06 183.67-22.55L183.67-22.55L183.67-22.55Q183.75-23.03 183.75-23.75L183.75-23.75L183.75-23.75Q183.75-24.53 183.58-25.48L183.58-25.48L183.58-25.48Q183.41-26.44 183-27.28L183-27.28L183-27.28Q182.59-28.13 181.97-28.69L181.97-28.69L181.97-28.69Q181.34-29.25 180.47-29.25L180.47-29.25L180.47-29.25Q179.34-29.25 178.55-28.58L178.55-28.58L178.55-28.58Q177.75-27.91 177.23-26.84L177.23-26.84L177.23-26.84Q176.72-25.78 176.42-24.42L176.42-24.42L176.42-24.42Q176.13-23.06 175.97-21.69L175.97-21.69L175.97-21.69Q175.81-20.31 175.78-19.05L175.78-19.05L175.78-19.05Q175.75-17.78 175.75-16.91L175.75-16.91ZM212.59-29.75L207.75-29.75L207.75-6.66L207.75-6.66Q207.75-5 208.38-4.36L208.38-4.36L208.38-4.36Q209-3.72 210.09-3.72L210.09-3.72L210.09-3.72Q210.94-3.72 211.59-4.19L211.59-4.19L211.59-4.19Q212.25-4.66 212.72-5.25L212.72-5.25L212.72-5.25Q213.28-5.91 213.69-6.78L213.69-6.78L214.66-6.34L214.66-6.34Q214.19-5.34 213.55-4.16L213.55-4.16L213.55-4.16Q212.91-2.97 211.84-1.95L211.84-1.95L211.84-1.95Q210.78-0.94 209.17-0.25L209.17-0.25L209.17-0.25Q207.56 0.44 205.13 0.44L205.13 0.44L205.13 0.44Q203.75 0.44 202.48 0.03L202.48 0.03L202.48 0.03Q201.22-0.38 200.23-1.25L200.23-1.25L200.23-1.25Q199.25-2.13 198.66-3.44L198.66-3.44L198.66-3.44Q198.06-4.75 198.06-6.59L198.06-6.59L198.06-29.75L194.56-29.75L194.56-32L194.56-32Q195.44-32 197-32.45L197-32.45L197-32.45Q198.56-32.91 200.20-33.97L200.20-33.97L200.20-33.97Q201.84-35.03 203.25-36.81L203.25-36.81L203.25-36.81Q204.66-38.59 205.25-41.22L205.25-41.22L207.75-41.22L207.75-32L212.84-32L212.84-32Q215.34-32 215.34-32.84L215.34-32.84L215.34-32.84Q215.34-33.16 215.03-33.27L215.03-33.27L215.03-33.27Q214.72-33.38 214.33-33.55L214.33-33.55L214.33-33.55Q213.94-33.72 213.63-34.03L213.63-34.03L213.63-34.03Q213.31-34.34 213.31-35.06L213.31-35.06L213.31-35.06Q213.31-35.94 213.86-36.44L213.86-36.44L213.86-36.44Q214.41-36.94 215.28-36.94L215.28-36.94L215.28-36.94Q215.84-36.94 216.27-36.70L216.27-36.70L216.27-36.70Q216.69-36.47 216.97-36.08L216.97-36.08L216.97-36.08Q217.25-35.69 217.39-35.19L217.39-35.19L217.39-35.19Q217.53-34.69 217.53-34.19L217.53-34.19L217.53-34.19Q217.53-32.16 216.36-30.95L216.36-30.95L216.36-30.95Q215.19-29.75 212.59-29.75L212.59-29.75ZM229.22-29.94L229.22-29.94L229.22-29.94Q228.50-29.94 227.86-29.75L227.86-29.75L227.86-29.75Q227.22-29.56 226.72-29.14L226.72-29.14L226.72-29.14Q226.22-28.72 225.94-28.08L225.94-28.08L225.94-28.08Q225.66-27.44 225.66-26.56L225.66-26.56L225.66-26.56Q225.66-25.34 226.55-24.14L226.55-24.14L226.55-24.14Q227.44-22.94 228.77-21.64L228.77-21.64L228.77-21.64Q230.09-20.34 231.64-18.95L231.64-18.95L231.64-18.95Q233.19-17.56 234.52-16.02L234.52-16.02L234.52-16.02Q235.84-14.47 236.73-12.72L236.73-12.72L236.73-12.72Q237.63-10.97 237.63-8.97L237.63-8.97L237.63-8.97Q237.63-6.72 236.86-4.97L236.86-4.97L236.86-4.97Q236.09-3.22 234.67-2L234.67-2L234.67-2Q233.25-0.78 231.23-0.14L231.23-0.14L231.23-0.14Q229.22 0.50 226.75 0.50L226.75 0.50L226.75 0.50Q224.59 0.50 222.84-0.11L222.84-0.11L222.84-0.11Q221.09-0.72 219.73-1.61L219.73-1.61L219.73-1.61Q218.38-2.50 217.41-3.50L217.41-3.50L217.41-3.50Q216.44-4.50 215.91-5.31L215.91-5.31L217-6.09L217-6.09Q217.41-5.63 218.03-5.08L218.03-5.08L218.03-5.08Q218.66-4.53 219.42-4.06L219.42-4.06L219.42-4.06Q220.19-3.59 221.06-3.30L221.06-3.30L221.06-3.30Q221.94-3 222.84-3L222.84-3L222.84-3Q225.09-3 226.53-4.08L226.53-4.08L226.53-4.08Q227.97-5.16 227.97-7.28L227.97-7.28L227.97-7.28Q227.97-8.47 227.19-9.73L227.19-9.73L227.19-9.73Q226.41-11 225.22-12.34L225.22-12.34L225.22-12.34Q224.03-13.69 222.66-15.13L222.66-15.13L222.66-15.13Q221.28-16.56 220.09-18.09L220.09-18.09L220.09-18.09Q218.91-19.63 218.13-21.25L218.13-21.25L218.13-21.25Q217.34-22.88 217.34-24.63L217.34-24.63L217.34-24.63Q217.34-26.59 218.14-28.06L218.14-28.06L218.14-28.06Q218.94-29.53 220.27-30.50L220.27-30.50L220.27-30.50Q221.59-31.47 223.30-31.95L223.30-31.95L223.30-31.95Q225-32.44 226.81-32.44L226.81-32.44L226.81-32.44Q228.91-32.44 230.63-32.06L230.63-32.06L230.63-32.06Q232.34-31.69 233.58-30.92L233.58-30.92L233.58-30.92Q234.81-30.16 235.48-29L235.48-29L235.48-29Q236.16-27.84 236.16-26.31L236.16-26.31L236.16-26.31Q236.16-25.13 235.38-24.25L235.38-24.25L235.38-24.25Q234.59-23.38 233.19-23.38L233.19-23.38L233.19-23.38Q231.84-23.38 231.14-23.95L231.14-23.95L231.14-23.95Q230.44-24.53 230.44-25.53L230.44-25.53L230.44-25.53Q230.44-26.19 230.77-26.56L230.77-26.56L230.77-26.56Q231.09-26.94 231.50-27.17L231.50-27.17L231.50-27.17Q231.91-27.41 232.23-27.58L232.23-27.58L232.23-27.58Q232.56-27.75 232.56-28.03L232.56-28.03L232.56-28.03Q232.56-28.91 231.63-29.42L231.63-29.42L231.63-29.42Q230.69-29.94 229.22-29.94Z" fill="url(#editing-gradient-gradient)"></path></g></g><style>text {
  font-size: 64px;
  font-family: Arial Black;
  dominant-baseline: central;
  text-anchor: middle;
}</style></svg>